# xmcd
#
# Track frame offsets: 
#        150
#        19794
#        38167
#        55518
#        77154
#        95201
#        111044
#        132823
#        151533
#        168395
#        187122
#        201678
#        214763
#        231112
#        247237
#        264257
#        284909
#        302026
#        318159
#        336296
#
# Disc length: 4738 seconds
#
# Revision: 0
# Processed by: cddbd v1.5.2PL0 Copyright (c) Steve Scherf et al.
# Submitted via: ExactAudioCopy v1.0b3
#
DISCID=23128014
DTITLE=Various Artist - 2004` 20 Blues Super
DYEAR=2004
DGENRE=Blues
TTITLE0=Tinsley Ellis - Still In The Game
TTITLE1=Johnny Winter - Pack Your Bags, Baby
TTITLE2=J.J. Cale - These Blues
TTITLE3=Gary Brooker - Baby Lee
TTITLE4=Diana Krall - Stop This World
TTITLE5=Charlie Musselwhite - Sanctuery
TTITLE6=John Kay - Dodging Butlets
TTITLE7=Eric Clapton - Kind Hearted Woman Blues
TTITLE8=Gary Moore - Getaway Blues
TTITLE9=Bonnie Rait - Fool`s Game
TTITLE10=Norah Jones - The Long Way Home
TTITLE11=Keb`Mo` - France
TTITLE12=Joe Bonamassa - Your Upset My Baby
TTITLE13=Patricia Kaas - C`est Les Femmes Qui Menent La Danse
TTITLE14=Red Elvises - Bedroom Boogie
TTITLE15=Chris Rea - Steel River Blues
TTITLE16=Bill Wyman - Disappearing Nightly
TTITLE17=Katie Melua - My Aphrodisiac Is You
TTITLE18=Buddy Miles - Rock and Roll
TTITLE19=Luther Johnson - All Your Love
EXTD=
EXTT0=
EXTT1=
EXTT2=
EXTT3=
EXTT4=
EXTT5=
EXTT6=
EXTT7=
EXTT8=
EXTT9=
EXTT10=
EXTT11=
EXTT12=
EXTT13=
EXTT14=
EXTT15=
EXTT16=
EXTT17=
EXTT18=
EXTT19=
PLAYORDER=
